<?xml version="1.0" encoding="utf-8"?>
<!-- Generator: Adobe Illustrator 19.2.1, SVG Export Plug-In . SVG Version: 6.00 Build 0)  -->
<svg version="1.1" id="Layer_1" xmlns="http://www.w3.org/2000/svg" xmlns:xlink="http://www.w3.org/1999/xlink" x="0px" y="0px"
	 viewBox="0 0 100 100" style="enable-background:new 0 0 100 100;" xml:space="preserve">
<g>
	<g>
		<g>
			<path d="M50.4,97.2c-25.6,0-46.5-20.9-46.5-46.5S24.7,4.2,50.4,4.2c19.9,0,37.6,12.7,44,31.5c0.3,0.8-0.2,1.6-0.9,1.9
				c-0.8,0.3-1.6-0.2-1.9-0.9C85.6,19,69,7.2,50.4,7.2c-24,0-43.5,19.5-43.5,43.5s19.5,43.5,43.5,43.5c9.2,0,18-2.8,25.4-8.2
				c11.4-8.2,18.1-21.4,18.1-35.3c0-0.8,0.7-1.5,1.5-1.5s1.5,0.7,1.5,1.5c0,14.9-7.2,29-19.4,37.8C69.6,94.2,60.2,97.2,50.4,97.2z"
				/>
		</g>
		<g>
			<path d="M95.1,52.2H31.7c-0.8,0-1.5-0.7-1.5-1.5s0.7-1.5,1.5-1.5h63.5c0.8,0,1.5,0.7,1.5,1.5S96,52.2,95.1,52.2z"/>
		</g>
	</g>
	<g>
		<path d="M52.4,72.9c-0.4,0-0.8-0.1-1.1-0.4L29.5,50.7l21.8-21.8c0.6-0.6,1.5-0.6,2.1,0c0.6,0.6,0.6,1.5,0,2.1L33.8,50.7l19.7,19.7
			c0.6,0.6,0.6,1.5,0,2.1C53.2,72.8,52.8,72.9,52.4,72.9z"/>
	</g>
</g>
</svg>
